<svg width="24" height="24" viewBox="0 0 24 24" fill="currentColor" xmlns="http://www.w3.org/2000/svg">
<path d="M16.1338 21.3949C15.9515 21.3949 15.7766 21.3225 15.6477 21.1935C15.5188 21.0646 15.4463 20.8897 15.4463 20.7074V15.8949C15.4463 15.7126 15.5188 15.5377 15.6477 15.4088C15.7766 15.2798 15.9515 15.2074 16.1338 15.2074C16.3162 15.2074 16.4911 15.2798 16.62 15.4088C16.7489 15.5377 16.8213 15.7126 16.8213 15.8949V20.7074C16.8213 20.8897 16.7489 21.0646 16.62 21.1935C16.4911 21.3225 16.3162 21.3949 16.1338 21.3949ZM13.3838 21.3949C13.2015 21.3949 13.0266 21.3225 12.8977 21.1935C12.7688 21.0646 12.6963 20.8897 12.6963 20.7074V16.5824C12.6963 16.4001 12.6239 16.2252 12.495 16.0963C12.3661 15.9673 12.1912 15.8949 12.0088 15.8949H10.4459C10.3016 16.2832 10.1169 16.6552 9.89502 17.005L10.5614 18.3369C10.6354 18.499 10.6435 18.6834 10.5841 18.8513C10.5248 19.0193 10.4025 19.1576 10.2432 19.2372C10.0839 19.3168 9.89984 19.3315 9.72991 19.2781C9.55997 19.2247 9.41738 19.1075 9.33218 18.9511L8.90043 18.0876C8.59608 18.3104 8.25102 18.4714 7.88477 18.5615V19.3315C7.88477 19.5138 7.81233 19.6887 7.6834 19.8176C7.55447 19.9465 7.3796 20.019 7.19727 20.019C7.01493 20.019 6.84006 19.9465 6.71113 19.8176C6.5822 19.6887 6.50977 19.5138 6.50977 19.3315V18.644H5.13477V20.7065C5.13477 20.8888 5.06233 21.0637 4.9334 21.1926C4.80447 21.3215 4.6296 21.394 4.44727 21.394C4.26493 21.394 4.09006 21.3215 3.96113 21.1926C3.8322 21.0637 3.75977 20.8888 3.75977 20.7065V17.269C3.75977 15.4439 4.45368 14.519 5.82227 14.519H12.0098C12.5566 14.5195 13.0809 14.7369 13.4676 15.1236C13.8543 15.5103 14.0718 16.0346 14.0723 16.5815V20.7065C14.0718 20.8889 13.9991 21.0637 13.8701 21.1927C13.7411 21.3217 13.5663 21.3944 13.3838 21.3949ZM7.19635 17.2699C8.06168 17.2699 8.61993 16.5393 8.94535 15.8949H5.82135C5.41893 15.8949 5.13385 15.9939 5.13385 17.2699H7.19635Z" />
<path d="M1.69629 21.3949C1.51395 21.3949 1.33908 21.3225 1.21015 21.1936C1.08122 21.0646 1.00879 20.8898 1.00879 20.7074V11.0824C1.00879 8.76784 2.58546 6.26992 5.13379 6.26992H14.2885C14.3652 6.10389 14.4609 5.94732 14.5736 5.80334C14.2312 5.47345 14.0048 5.0415 13.9285 4.57217C13.8521 4.10285 13.9299 3.62142 14.1501 3.20001C14.2128 3.07891 14.3103 2.97927 14.4299 2.91383C14.5495 2.84838 14.686 2.8201 14.8218 2.8326C14.9576 2.8451 15.0866 2.8978 15.1923 2.98399C15.298 3.07017 15.3756 3.18591 15.4151 3.31642C15.4421 3.40269 15.4517 3.49345 15.4434 3.58346C15.4351 3.67347 15.4089 3.76092 15.3665 3.84075L15.3464 3.88109C15.3016 3.97713 15.2763 4.08105 15.2717 4.1869C15.2672 4.29275 15.2835 4.39847 15.3198 4.49801C15.3557 4.59919 15.4113 4.69226 15.4834 4.77187C15.5554 4.85147 15.6425 4.91604 15.7396 4.96184L15.7882 4.98567C15.9981 4.92609 16.2117 4.89584 16.4262 4.89584H18.9388C19.2268 4.89666 19.5122 4.94978 19.7812 5.05259L19.9499 4.96826C20.0491 4.92384 20.1385 4.86001 20.2128 4.78052C20.287 4.70102 20.3445 4.60748 20.382 4.50539C20.4195 4.4033 20.4362 4.29474 20.4311 4.18611C20.426 4.07747 20.3992 3.97096 20.3523 3.87284L20.333 3.83525C20.2488 3.67346 20.2323 3.48483 20.2871 3.31086C20.342 3.13689 20.4637 2.99183 20.6255 2.90759C20.7872 2.82335 20.9759 2.80683 21.1499 2.86167C21.3238 2.91651 21.4689 3.03821 21.5531 3.20001C21.5687 3.22842 21.5825 3.25775 21.5962 3.28709C21.8455 3.81417 21.8749 4.40909 21.6778 4.96092C21.5333 5.36893 21.2703 5.7245 20.9225 5.98209C21.12 6.29177 21.2424 6.64335 21.28 7.00875L22.8062 8.53501C22.8706 8.59846 22.9218 8.67409 22.9567 8.7575C22.9916 8.8409 23.0096 8.93042 23.0096 9.02084C23.0096 9.11126 22.9916 9.20077 22.9567 9.28418C22.9218 9.36758 22.8706 9.44321 22.8062 9.50667C22.7424 9.57053 22.6667 9.62119 22.5833 9.65576C22.5 9.69032 22.4106 9.70811 22.3204 9.70811C22.2301 9.70811 22.1408 9.69032 22.0574 9.65576C21.974 9.62119 21.8983 9.57053 21.8345 9.50667L21.0297 8.70184L20.312 11.9313C20.1979 12.4554 19.9074 12.9245 19.4889 13.26C19.0704 13.5956 18.5494 13.7773 18.013 13.7747H17.353C16.8167 13.7772 16.2958 13.5955 15.8774 13.26C15.4591 12.9244 15.1687 12.4553 15.0549 11.9313L14.3985 8.9805L13.8678 9.5085C13.8042 9.57221 13.7286 9.62267 13.6453 9.65697C13.5621 9.69127 13.4729 9.70873 13.3829 9.70834C13.2469 9.70796 13.1141 9.66732 13.0011 9.59154C12.8882 9.51575 12.8003 9.40822 12.7484 9.28251C12.6965 9.1568 12.6831 9.01855 12.7097 8.88519C12.7363 8.75183 12.8018 8.62934 12.898 8.53317L13.7899 7.64584H5.13379C3.43521 7.64584 2.38379 9.43059 2.38379 11.0833V20.7083C2.38355 20.8905 2.31101 21.0651 2.1821 21.1939C2.0532 21.3226 1.87847 21.3949 1.69629 21.3949ZM16.4271 6.26992C16.1659 6.26992 15.9193 6.37259 15.7341 6.55775C15.617 6.67378 15.5313 6.8177 15.4851 6.97598C15.4389 7.13426 15.4338 7.30169 15.4701 7.4625L16.3969 11.6306C16.4977 12.0825 16.891 12.3978 17.353 12.3978H18.013C18.4759 12.3978 18.8691 12.0825 18.97 11.6306L19.8967 7.46159C19.9249 7.3359 19.9279 7.20585 19.9054 7.07901C19.8829 6.95217 19.8354 6.83107 19.7656 6.72275C19.6773 6.5835 19.5551 6.46886 19.4106 6.38952C19.266 6.31018 19.1037 6.26872 18.9388 6.26901L16.4271 6.26992Z" />
</svg>
