<svg width="96" height="96" viewBox="0 0 96 96" fill="none" xmlns="http://www.w3.org/2000/svg">
<rect width="96" height="96" fill="white"/>
<path d="M79.4083 39.0715C75.8092 32.0118 70.2722 25.2982 65.3581 21.976C62.5896 20.0381 59.5443 18.9999 56.4297 18.9999C52.4846 18.9999 48.6779 20.661 45.7018 23.7755C43.7638 25.7827 41.2722 26.8209 38.5729 26.8209C37.5347 26.8209 36.5657 26.6825 35.5967 26.3364L34.9738 26.1288C33.3127 25.6443 31.6516 25.3674 30.0597 25.3674C26.3222 25.3674 23.0693 26.6825 20.6468 29.2433C16.9786 32.9116 15.1098 38.4486 14.0716 42.3937C12.7566 47.7231 12.2721 53.6062 12.7566 58.9355C13.1026 62.5346 13.7948 65.6491 14.9714 68.3484C16.2172 71.3938 18.0167 73.6778 20.1623 75.2697C21.8926 76.4463 23.6922 77 25.6993 77C31.3748 77 36.8426 72.2936 42.6564 67.241L43.2101 66.7565C45.4941 64.8186 51.3772 63.0191 55.53 63.0191C56.3605 63.0191 56.9834 63.0883 57.5371 63.2267L58.2292 63.3651C62.9357 64.4725 67.3653 65.5107 71.3104 65.5107C76.4322 65.5107 79.8928 63.7112 81.8307 60.0429C85.5682 53.3293 81.8999 43.9856 79.4083 39.0715Z" fill="#55CFF5"/>
<path d="M77.4704 56.7899C73.8713 63.4343 64.9429 61.2195 55.53 59.0047C51.4465 58.0358 43.0717 60.1121 39.888 62.8806C32.5514 69.179 25.6994 75.2697 19.4703 71.0477C18.6397 70.494 17.9476 69.7327 17.2554 68.9713C17.4631 69.179 17.7399 69.3174 17.9476 69.525C24.2459 73.747 31.098 67.5871 38.3653 61.358C41.5491 58.5895 49.9238 56.5823 54.0073 57.4821C63.4202 59.6276 72.3487 61.9117 75.9477 55.2673C80.2389 47.377 73.1792 33.1884 65.5658 24.9521C73.7329 32.8424 82.0384 48.346 77.4704 56.7899Z" fill="#9CF1FF"/>
<path d="M75.9478 55.2674C72.3487 61.9118 63.4203 59.697 54.0074 57.4822C49.9238 56.5132 41.5491 58.5896 38.3653 61.3581C31.098 67.5872 24.246 73.7471 17.9476 69.5252C17.74 69.3867 17.4631 69.1791 17.2555 68.9715C9.84976 59.7662 12.2722 36.7184 20.024 28.6898C23.277 25.3676 27.845 24.7446 32.3438 26.0597L32.9668 26.2673C37.1887 27.5824 41.6875 26.4057 44.7329 23.222C49.5086 18.3079 56.153 17.685 61.7592 21.6993C63.005 22.5298 64.2508 23.568 65.5659 24.8831C73.2485 33.1886 80.2389 47.3079 75.9478 55.2674Z" fill="#1468BA"/>
<path d="M47.6398 50.7684C47.2245 51.5989 46.4632 52.1526 45.5634 52.3603C44.6637 52.5679 43.7639 52.4295 43.0026 51.8758C42.3104 51.3913 41.3415 51.5989 40.9262 52.2911C40.4417 52.9832 40.6493 53.9522 41.3415 54.3674C42.7949 55.3364 44.5944 55.6825 46.3248 55.2672C48.0551 54.8519 49.5085 53.7445 50.3391 52.1526C50.7544 51.3913 50.4775 50.4915 49.7162 50.0763C48.9548 49.7302 48.0551 50.0071 47.6398 50.7684Z" fill="#FF4E00"/>
<path d="M33.5896 39.1408L30.9595 39.8329L30.3366 37.1336C29.9213 35.4725 28.191 34.4344 26.5299 34.8496C24.8688 35.2649 23.8306 36.9952 24.2459 38.6563L24.8688 41.3556L22.1695 41.9785C20.5084 42.3938 19.4702 44.1241 19.8855 45.7852C20.3008 47.4463 22.0311 48.4845 23.6922 48.0692L26.3915 47.4463L27.0144 50.1456C27.4297 51.8067 29.16 52.8449 30.8211 52.4296C32.4822 52.0143 33.5204 50.284 33.1051 48.6229L32.4822 45.9236L35.1815 45.3007C36.8426 44.8855 37.8808 43.1551 37.4655 41.494C36.981 39.7637 35.3199 38.7255 33.5896 39.1408Z" fill="#014472"/>
<path d="M55.7351 34.4907C57.4425 34.0705 58.4859 32.3457 58.0657 30.6383C57.6454 28.931 55.9207 27.8876 54.2133 28.3078C52.5059 28.7281 51.4625 30.4528 51.8828 32.1602C52.303 33.8675 54.0278 34.9109 55.7351 34.4907Z" fill="#FF4E00"/>
<path d="M58.4336 45.2777C60.141 44.8574 61.1844 43.1327 60.7641 41.4253C60.3439 39.718 58.6191 38.6745 56.9118 39.0948C55.2044 39.515 54.161 41.2398 54.5812 42.9472C55.0015 44.6545 56.7263 45.6979 58.4336 45.2777Z" fill="#236323"/>
<path d="M63.2095 38.2939C64.7746 37.4927 65.3938 35.5743 64.5925 34.0092C63.7912 32.4441 61.8729 31.8249 60.3078 32.6262C58.7427 33.4275 58.1235 35.3458 58.9248 36.9109C59.726 38.476 61.6444 39.0952 63.2095 38.2939Z" fill="#663C68"/>
<path d="M52.4004 40.9286C53.9655 40.1273 54.5847 38.209 53.7835 36.6439C52.9822 35.0787 51.0638 34.4595 49.4987 35.2608C47.9336 36.0621 47.3144 37.9804 48.1157 39.5455C48.917 41.1107 50.8353 41.7299 52.4004 40.9286Z" fill="#CC1F1F"/>
<path d="M46.6016 49.5226C46.1863 50.3531 45.4249 50.9069 44.5252 51.1145C43.6254 51.3221 42.6564 51.1837 41.8951 50.63C41.203 50.1455 40.234 50.3531 39.7495 51.0453C39.265 51.7374 39.4727 52.7064 40.1648 53.1909C41.6183 54.1598 43.487 54.5059 45.2173 54.0906C46.9476 53.6754 48.4011 52.4987 49.3009 50.9761C49.7161 50.2147 49.4393 49.315 48.6779 48.8997C47.9166 48.4844 47.0168 48.7613 46.6016 49.5226Z" fill="#FFD00D"/>
<path d="M32.413 37.7564L29.7137 38.4485L29.0216 35.7493C28.6063 34.0189 26.876 32.9808 25.1457 33.396C23.4153 33.8113 22.3772 35.5416 22.7924 37.2719L23.4846 39.9712L20.7853 40.6633C19.055 41.0786 18.0168 42.8089 18.432 44.5393C18.8473 46.2696 20.5776 47.3078 22.3079 46.8925L25.0072 46.2004L25.6994 48.8996C26.1146 50.63 27.8449 51.6681 29.5753 51.2529C31.3056 50.8376 32.3438 49.1073 31.9285 47.377L31.2364 44.6777L33.9357 43.9856C35.666 43.5703 36.7042 41.84 36.2889 40.1096C35.8044 38.3793 34.0741 37.3411 32.413 37.7564Z" fill="#55CFF5"/>
<path d="M54.7767 33.0364C56.5212 32.607 57.5873 30.8448 57.1579 29.1003C56.7285 27.3558 54.9663 26.2897 53.2218 26.7191C51.4773 27.1485 50.4112 28.9108 50.8406 30.6552C51.27 32.3997 53.0322 33.4658 54.7767 33.0364Z" fill="#FFD00D"/>
<path d="M57.4777 43.9694C59.2222 43.54 60.2883 41.7778 59.8589 40.0333C59.4295 38.2888 57.6673 37.2227 55.9228 37.6521C54.1783 38.0815 53.1122 39.8437 53.5416 41.5882C53.971 43.3327 55.7332 44.3988 57.4777 43.9694Z" fill="#38CE46"/>
<path d="M62.3402 36.91C63.9394 36.0913 64.572 34.1313 63.7533 32.5322C62.9346 30.933 60.9746 30.3004 59.3755 31.1191C57.7763 31.9378 57.1437 33.8978 57.9624 35.4969C58.7811 37.0961 60.7411 37.7287 62.3402 36.91Z" fill="#EA6CE7"/>
<path d="M51.4101 39.6125C53.0092 38.7938 53.6419 36.8338 52.8232 35.2347C52.0045 33.6355 50.0444 33.0029 48.4453 33.8216C46.8462 34.6403 46.2135 36.6003 47.0322 38.1994C47.8509 39.7986 49.8109 40.4312 51.4101 39.6125Z" fill="#FF4545"/>
</svg>
