<svg viewBox="0 0 526 122" fill="none" xmlns="http://www.w3.org/2000/svg">
<path d="M204.7 19.2C202.9 18.3 200.7 19.1 199.9 20.9C199.6 21.6 198.9 22.7 198.1 22.9C197.5 23.1 196.6 22.8 195.8 22.2C193.3 20.4 189.2 19.4 185.8 21C183.2 22.3 181.6 24.8 181.4 28.1L181.2 33.5C181.1 33.3 180.9 33.1 180.8 32.9C177.8 28.7 175 24.7 170.8 25.2C167.1 25.6 165.3 29.2 164.2 31.9C163.5 33.7 164.3 35.9 166.2 36.6C168 37.3 170.2 36.5 170.9 34.6C171.2 33.8 171.5 33.2 171.7 32.8C172.6 33.8 174 35.6 174.9 37C175.2 37.4 175.4 37.7 175.7 38.1C177.7 40.8 180.6 41.9 183.3 41.2C183.4 41.2 183.4 41.2 183.5 41.1C186.3 40.2 188.2 37.5 188.4 34.1L188.6 28.3C188.6 28.1 188.7 27.5 188.9 27.4C189.4 27.1 190.7 27.3 191.6 27.9C194.2 29.7 197.2 30.4 199.9 29.7C201.8 29.2 204.6 27.8 206.5 23.8C207.3 22.2 206.5 20.1 204.7 19.2Z" fill="#FFA1A1"/>
<path d="M27.6001 51.9C26.7001 50.6 25.0001 50.1 23.4001 50.6C21.9001 51.1 20.8001 52.5 20.9001 54.1L21.1001 72H20.8001C18.9001 72.6 17.8001 74.7 18.4001 76.7C18.9001 78.3 20.5001 79.4 22.2001 79.2C22.5001 79.2 22.8001 79.1 23.1001 79L25.9001 78.1C27.4001 77.6 28.5001 76.2 28.5001 74.5L28.4001 65.4L33.8001 72.8C35.0001 74.5 37.3001 74.8 39.0001 73.6C40.7001 72.4 41.0001 70.1 39.8001 68.4L27.6001 51.9Z" fill="#FFA1A1"/>
<path d="M66.7 57.5C64.7 57.2 62.8 58.6 62.5 60.6L62 63.5L59.7 61.4C58.7 60.5 57.3 60.2 56.1 60.6L53.6 61.4C51.7 62 50.6 64.1 51.2 66.1C51.8 68 53.9 69.1 55.9 68.5L56.3 68.4L62.2 73.7C63 74.4 63.9 74.7 64.9 74.7C65.2 74.7 65.6 74.6 65.9 74.5C67.2 74 68.1 72.9 68.3 71.6L69.8 61.9C70.1 59.7 68.7 57.8 66.7 57.5Z" fill="#FFA1A1"/>
<path d="M12.4001 74.8L10.5001 75.4C8.60007 76 7.50007 78.1 8.10007 80.1C8.60007 81.7 10.2001 82.8 11.9001 82.6C12.2001 82.6 12.5001 82.5 12.8001 82.4L14.7001 81.8C16.6001 81.2 17.7001 79.1 17.1001 77.1C16.4001 75.2 14.4001 74.2 12.4001 74.8Z" fill="#FFA1A1"/>
<path d="M44.9 64.2L44.2 64.4C42.3 65 41.2 67.1 41.8 69.1C42.3 70.7 43.9 71.8 45.6 71.6C45.9 71.6 46.2 71.5 46.5 71.4L47.2 71.2C49.1 70.6 50.2 68.5 49.6 66.5C48.9 64.6 46.9 63.6 44.9 64.2Z" fill="#FFA1A1"/>
<path d="M169.5 47.9C164.3 37.7 156.3 28 149.2 23.2C145.2 20.4 140.8 18.9 136.3 18.9C130.6 18.9 125.1 21.3 120.8 25.8C118 28.7 114.4 30.2 110.5 30.2C109 30.2 107.6 30 106.2 29.5L105.3 29.2C102.9 28.5 100.5 28.1 98.2 28.1C92.8 28.1 88.1 30 84.6 33.7C79.3 39 76.6 47 75.1 52.7C73.2 60.4 72.5 68.9 73.2 76.6C73.7 81.8 74.7 86.3 76.4 90.2C78.2 94.6 80.8 97.9 83.9 100.2C86.4 101.9 89 102.7 91.9 102.7C100.1 102.7 108 95.9 116.4 88.6L117.2 87.9C120.5 85.1 129 82.5 135 82.5C136.2 82.5 137.1 82.6 137.9 82.8L138.9 83C145.7 84.6 152.1 86.1 157.8 86.1C165.2 86.1 170.2 83.5 173 78.2C178.4 68.5 173.1 55 169.5 47.9Z" fill="#55CFF5"/>
<path d="M166.7 73.5C161.5 83.1 148.6 79.9 135 76.7C129.1 75.3 117 78.3 112.4 82.3C101.8 91.4 91.9001 100.2 82.9001 94.1C81.7001 93.3 80.7001 92.2 79.7001 91.1C80.0001 91.4 80.4001 91.6 80.7001 91.9C89.8001 98 99.7001 89.1 110.2 80.1C114.8 76.1 126.9 73.2 132.8 74.5C146.4 77.6 159.3 80.9 164.5 71.3C170.7 59.9 160.5 39.4 149.5 27.5C161.3 38.9 173.3 61.3 166.7 73.5Z" fill="#9CF1FF"/>
<path d="M164.5 71.3C159.3 80.9 146.4 77.7 132.8 74.5C126.9 73.1 114.8 76.1 110.2 80.1C99.7001 89.1 89.8001 98 80.7001 91.9C80.4001 91.7 80.0001 91.4 79.7001 91.1C69.0001 77.8 72.5001 44.5 83.7001 32.9C88.4001 28.1 95.0001 27.2 101.5 29.1L102.4 29.4C108.5 31.3 115 29.6 119.4 25C126.3 17.9 135.9 17 144 22.8C145.8 24 147.6 25.5 149.5 27.4C160.6 39.4 170.7 59.8 164.5 71.3Z" fill="#1468BA"/>
<path d="M123.6 64.8C123 66 121.9 66.8 120.6 67.1C119.3 67.4 118 67.2 116.9 66.4C115.9 65.7 114.5 66 113.9 67C113.2 68 113.5 69.4 114.5 70C116.6 71.4 119.2 71.9 121.7 71.3C124.2 70.7 126.3 69.1 127.5 66.8C128.1 65.7 127.7 64.4 126.6 63.8C125.5 63.3 124.2 63.7 123.6 64.8Z" fill="#FF4E00"/>
<path d="M103.3 48L99.5 49L98.6 45.1C98 42.7 95.5 41.2 93.1 41.8C90.7 42.4 89.2 44.9 89.8 47.3L90.7 51.2L86.8 52.1C84.4 52.7 82.9 55.2 83.5 57.6C84.1 60 86.6 61.5 89 60.9L92.9 60L93.8 63.9C94.4 66.3 96.9 67.8 99.3 67.2C101.7 66.6 103.2 64.1 102.6 61.7L101.7 57.8L105.6 56.9C108 56.3 109.5 53.8 108.9 51.4C108.2 48.9 105.8 47.4 103.3 48Z" fill="#014472"/>
<path d="M135.296 41.2814C137.763 40.6742 139.271 38.1822 138.664 35.7154C138.057 33.2485 135.565 31.741 133.098 32.3482C130.631 32.9554 129.123 35.4473 129.731 37.9142C130.338 40.381 132.83 41.8886 135.296 41.2814Z" fill="#FF4E00"/>
<path d="M139.195 56.8667C141.662 56.2595 143.17 53.7675 142.563 51.3007C141.955 48.8339 139.463 47.3263 136.997 47.9335C134.53 48.5407 133.022 51.0327 133.629 53.4995C134.236 55.9663 136.728 57.4739 139.195 56.8667Z" fill="#236323"/>
<path d="M146.095 46.7767C148.357 45.6189 149.251 42.8473 148.094 40.586C146.936 38.3247 144.164 37.43 141.903 38.5877C139.642 39.7454 138.747 42.5171 139.905 44.7784C141.063 47.0397 143.834 47.9344 146.095 46.7767Z" fill="#663C68"/>
<path d="M130.478 50.5831C132.74 49.4253 133.634 46.6537 132.477 44.3924C131.319 42.1311 128.547 41.2364 126.286 42.3941C124.025 43.5519 123.13 46.3235 124.288 48.5848C125.445 50.8461 128.217 51.7408 130.478 50.5831Z" fill="#CC1F1F"/>
<path d="M122.1 63C121.5 64.2 120.4 65 119.1 65.3C117.8 65.6 116.4 65.4 115.3 64.6C114.3 63.9 112.9 64.2 112.2 65.2C111.5 66.2 111.8 67.6 112.8 68.3C114.9 69.7 117.6 70.2 120.1 69.6C122.6 69 124.7 67.3 126 65.1C126.6 64 126.2 62.7 125.1 62.1C124 61.5 122.7 61.9 122.1 63Z" fill="#FFD00D"/>
<path d="M101.6 46L97.7 47L96.7 43.1C96.1 40.6 93.6 39.1 91.1 39.7C88.6 40.3 87.1 42.8 87.7 45.3L88.7 49.2L84.8 50.2C82.3 50.8 80.8 53.3 81.4 55.8C82 58.3 84.5 59.8 87 59.2L90.9 58.2L91.9 62.1C92.5 64.6 95 66.1 97.5 65.5C100 64.9 101.5 62.4 100.9 59.9L99.9 56L103.8 55C106.3 54.4 107.8 51.9 107.2 49.4C106.5 46.9 104 45.4 101.6 46Z" fill="#55CFF5"/>
<path d="M133.912 39.1805C136.432 38.5601 137.973 36.014 137.352 33.4935C136.732 30.973 134.186 29.4327 131.665 30.0531C129.145 30.6735 127.604 33.2196 128.225 35.7401C128.845 38.2606 131.391 39.8009 133.912 39.1805Z" fill="#FFD00D"/>
<path d="M137.814 54.9768C140.335 54.3564 141.875 51.8103 141.254 49.2898C140.634 46.7694 138.088 45.229 135.567 45.8494C133.047 46.4698 131.507 49.016 132.127 51.5364C132.747 54.0569 135.294 55.5972 137.814 54.9768Z" fill="#38CE46"/>
<path d="M144.84 44.7772C147.15 43.5943 148.064 40.7624 146.881 38.4519C145.698 36.1414 142.866 35.2273 140.556 36.4102C138.246 37.5931 137.331 40.425 138.514 42.7355C139.697 45.0459 142.529 45.96 144.84 44.7772Z" fill="#EA6CE7"/>
<path d="M129.048 48.6817C131.358 47.4988 132.272 44.6669 131.089 42.3564C129.906 40.046 127.075 39.1319 124.764 40.3148C122.454 41.4976 121.539 44.3295 122.722 46.64C123.905 48.9505 126.737 49.8646 129.048 48.6817Z" fill="#FF4545"/>
<path d="M202.2 17.9C200.5 17.1 198.5 17.8 197.7 19.5C197.4 20.1 196.8 21.2 196 21.4C195.4 21.5 194.6 21.3 193.9 20.8C191.6 19.1 187.7 18.1 184.5 19.7C182.1 20.9 180.6 23.3 180.4 26.3L180.2 31.3C180.1 31.1 180 30.9 179.8 30.8C177 26.9 174.4 23.2 170.4 23.6C167 24 165.2 27.4 164.2 29.9C163.5 31.6 164.3 33.6 166.1 34.3C167.8 35 169.8 34.2 170.5 32.4C170.8 31.6 171.1 31.1 171.3 30.8C172.2 31.7 173.4 33.5 174.3 34.7C174.5 35 174.8 35.4 175 35.7C176.8 38.2 179.6 39.3 182.1 38.6C182.2 38.6 182.2 38.6 182.3 38.6C185 37.8 186.7 35.3 186.9 32L187.1 26.6C187.1 26.4 187.2 25.8 187.4 25.7C187.9 25.5 189.1 25.6 189.9 26.2C192.3 27.9 195.1 28.5 197.6 27.9C199.4 27.4 202 26.1 203.7 22.3C204.6 20.8 203.9 18.7 202.2 17.9Z" fill="#FF4545"/>
<path d="M26.1 50.7C25.2 49.4 23.6 48.9 22.1 49.4C20.6 49.9 19.6 51.3 19.6 52.8L19.7 70.1L19.5 70.2C17.6 70.8 16.6 72.8 17.2 74.7C17.7 76.3 19.2 77.3 20.8 77.2C21.1 77.2 21.4 77.1 21.7 77L24.4 76.1C25.9 75.6 26.9 74.2 26.9 72.7L26.8 63.9L32 71C33.2 72.6 35.4 73 37 71.8C38.6 70.6 39 68.4 37.8 66.8L26.1 50.7Z" fill="#FF4545"/>
<path d="M63.8 56.1C61.8 55.8 60 57.2 59.7 59.1L59.3 61.8L57 59.9C56 59 54.7 58.8 53.5 59.1L51.1 59.9C49.2 60.5 48.2 62.5 48.8 64.4C49.4 66.3 51.4 67.3 53.3 66.7L53.7 66.6L59.4 71.7C60.1 72.4 61.1 72.7 62 72.6C62.3 72.6 62.7 72.5 63 72.4C64.2 72 65.1 70.9 65.3 69.6L66.7 60.2C67.1 58.3 65.8 56.4 63.8 56.1Z" fill="#FF4545"/>
<path d="M11.4 72.9L9.50004 73.5C7.60004 74.1 6.60004 76.1 7.20004 78C7.70004 79.6 9.20004 80.6 10.8 80.5C11.1 80.5 11.4 80.4 11.7 80.3L13.6 79.7C15.5 79.1 16.5 77.1 15.9 75.2C15.3 73.3 13.2 72.2 11.4 72.9Z" fill="#FF4545"/>
<path d="M42.8 62.6L42.1 62.8C40.2 63.4 39.2 65.4 39.8 67.3C40.3 68.9 41.8 69.9 43.4 69.8C43.7 69.8 44 69.7 44.3 69.6L45 69.4C46.9 68.8 47.9 66.8 47.3 64.9C46.7 63 44.7 62 42.8 62.6Z" fill="#FF4545"/>
<path d="M216.4 73.4C215.7 73.4 214.9 73.5 214.2 73.9C213 74.3 211.8 74.6 210.4 74.6C207.4 74.6 205 73.6 203.1 71.7C201.2 69.8 200.3 67.4 200.3 64.5C200.3 61.3 201.2 58.8 203 57.1C204.8 55.3 207 54.4 209.7 54.4C211.2 54.4 212.5 54.6 213.7 55C214.4 55.2 215 55.4 215.6 55.4C216.9 55.4 217.8 54.8 218.5 53.7C218.8 53.1 219 52.5 219 51.9C219 50.6 218.1 49.5 216.5 48.6C214.8 47.7 212.5 47.3 209.8 47.3C204.3 47.3 200 48.9 196.9 52.2C193.9 55.4 192.3 59.6 192.3 64.6C192.3 69.8 193.9 73.9 197.2 77.1C200.4 80.3 204.6 81.9 209.8 81.9C212.8 81.9 215.3 81.3 217.4 80.2C219 79.4 219.7 78.3 219.7 76.9C219.7 76.4 219.6 75.8 219.3 75.2C218.6 74 217.6 73.4 216.4 73.4Z" fill="#353535"/>
<path d="M235.1 59.7H222.2C220.3 59.7 218.9 61.2 218.9 63.3C218.9 65.3 220.4 66.9 222.2 66.9H225.1V78.3C225.1 80.2 226.6 81.6 228.7 81.6C230.7 81.6 232.3 80.1 232.3 78.3V66.9H235.2C237.1 66.9 238.5 65.4 238.5 63.3C238.5 61.2 237 59.7 235.1 59.7Z" fill="#353535"/>
<path d="M261.6 63.1C261.6 61.1 260.1 59.5 257.8 59.5C256.2 59.5 254.8 60.5 254.4 62.1L252.2 69.5C252 70.2 251.8 71.2 251.7 72.5C251.4 71 251.1 70.1 250.9 69.5L248.1 61.9C247.5 60.2 246.3 59.4 244.6 59.4C242.3 59.4 240.6 61.1 240.6 63.2C240.6 63.8 240.7 64.3 240.9 64.8L248.2 81.1L247.7 82.2C247.2 83.4 246.5 84 245.6 84C243.7 84 242.5 84.3 241.9 86C241.8 86.3 241.7 86.7 241.7 87.1C241.7 88.4 242.3 89.3 243.4 89.9C244.4 90.3 245.3 90.6 246.3 90.6C248.1 90.6 249.5 89.9 250.8 88.6C252.1 87.3 253.4 84.7 254.9 81.1L261.4 64.5C261.5 64.1 261.6 63.6 261.6 63.1Z" fill="#353535"/>
<path d="M283.9 74.5V63.1C283.9 61.3 282.4 59.8 280.6 59.8H270.3C268.4 59.8 266.8 61.3 266.8 63.1L266.7 64.4C266.4 69.1 265.5 72.5 263.9 74.5C262.4 74.5 261.1 75.7 261.1 77.2V82.6C261.1 84.4 262.7 85.9 264.4 85.9C266.2 85.9 267.7 84.3 267.7 82.6V81.2H280.8V82.6C280.8 84.4 282.4 85.9 284.1 85.9C285.9 85.9 287.4 84.3 287.4 82.6V77.8C287.5 76 285.9 74.5 283.9 74.5ZM276.8 74.5H271.4C272.4 72.9 273.2 70.4 273.5 67.3L273.6 66.4H276.8V74.5Z" fill="#353535"/>
<path d="M309 59.5C306.8 59.5 305.4 60.3 304 62.4L298.2 70.9V62.8C298.2 60.9 296.7 59.5 294.6 59.5C292.6 59.5 291 61 291 62.8V77.8C291 80.1 292.5 81.6 294.9 81.6C296.9 81.6 298.4 80.7 299.6 78.9L305.7 69.9V78.2C305.7 80.1 307.2 81.5 309.3 81.5C311.3 81.5 312.9 80 312.9 78.2V63.1C313 61.2 311.3 59.5 309 59.5Z" fill="#353535"/>
<path d="M331.8 59.7H327.7C319.9 59.7 316.2 63 316.2 67.8C316.2 70.8 317.4 72.9 319.8 74.1L318.3 76.2C317.7 77 317.4 77.8 317.4 78.7C317.4 80.4 318.6 81.7 320.5 81.7C321.9 81.7 323 81 323.8 79.7L326.2 75.8H327.9V78.4C327.9 80.3 329.4 81.7 331.5 81.7C333.5 81.7 335.1 80.2 335.1 78.4V63.1C335.1 61.3 333.6 59.7 331.8 59.7ZM327.9 70.4H326.6C325 70.4 323.8 69.4 323.8 68.3C323.8 67.1 324.8 65.9 326.5 65.9H327.9V70.4Z" fill="#353535"/>
<path d="M368.9 62.4C368.9 61.4 368.6 60.6 367.9 60C367.3 59.5 366.6 59.2 365.9 59.2C365 59.2 364.2 59.6 363.6 60.3L357.9 66.8C357.3 67.5 357 68.3 357 69.2C357 70.1 357.3 70.9 357.9 71.5L363.4 78C364 78.7 364.8 79.1 365.8 79.1C366.6 79.1 367.3 78.9 367.9 78.3C368.6 77.7 369 76.9 369 75.9C369 75.1 368.8 74.5 368.3 73.9L364.2 69L368.3 64.2C368.7 63.9 368.9 63.2 368.9 62.4Z" fill="#353535"/>
<path d="M352.7 69.3L356.8 64.5C357.3 63.9 357.6 63.2 357.6 62.4C357.6 61.4 357.3 60.6 356.6 60C356 59.5 355.3 59.2 354.6 59.2C353.7 59.2 352.9 59.6 352.3 60.3L346.6 66.8C346 67.5 345.7 68.3 345.7 69.2C345.7 70.1 346 70.9 346.6 71.5L352.1 78C352.7 78.7 353.5 79.1 354.5 79.1C355.3 79.1 356 78.9 356.6 78.3C357.3 77.7 357.7 76.9 357.7 75.9C357.7 75.1 357.5 74.5 357 73.9L352.7 69.3Z" fill="#353535"/>
<path d="M390.1 63.8C392.9 61.9 394.3 59.5 394.3 56.7C394.3 50.7 390.2 47.3 384 47.3C381 47.3 378.3 48 376 49.3C374.4 50.2 373.7 51.4 373.7 52.9C373.7 54.8 375 56.1 377.1 56.1C377.6 56.1 378.5 55.8 379.8 55.2C381 54.7 382.1 54.4 383 54.4C385.2 54.4 386.7 55.4 386.7 57.5C386.7 59.5 385 60.5 382.9 60.5C380.6 60.5 379 61.7 379 64C379 66.3 380.6 67.7 382.9 67.7C386.3 67.7 388 68.8 388 71.1C388 73.6 385.8 74.6 383.3 74.6C382 74.6 380.6 74.2 379.1 73.4C377.5 72.6 376.4 72.2 375.8 72.2C374 72.2 372.5 73.3 372.5 75.3C372.5 76.5 373.1 77.6 374.3 78.8C375.9 80.3 379.2 81.8 383.7 81.8C386.8 81.8 389.6 80.9 392 79C394.4 77.2 395.6 74.8 395.6 71.9C395.6 67.7 393.8 65 390.1 63.8Z" fill="#353535"/>
<path d="M414.3 69.9C416.3 69.5 418.1 67.7 418.1 65.2C418.1 61.4 414.7 59.5 408 59.5C407.6 59.5 405.7 59.5 402.1 59.6C400.2 59.7 398.8 61.2 398.8 63.1V77.8C398.8 79.7 400.2 81.1 402.1 81.3C404.8 81.4 406.7 81.5 408 81.5C415.1 81.5 418.6 79.3 418.6 74.8C418.5 72.4 417 70.7 414.3 69.9ZM405.8 65.3C406.4 65.2 407.3 65.2 408.5 65.2C409.7 65.2 410.4 65.9 410.4 66.7C410.4 67.8 409.6 68.3 408.2 68.3H405.8V65.3ZM408.8 75.7C408.3 75.7 407.3 75.7 405.9 75.5V72.5H408.2C410.1 72.5 411 73 411 74.1C410.9 75 410 75.7 408.8 75.7Z" fill="#353535"/>
<path d="M438.8 59.5C437.2 59.5 435.8 60.5 435.4 62.1L433.2 69.5C433 70.2 432.8 71.2 432.7 72.5C432.4 71 432.1 70.1 431.9 69.5L429.1 61.9C428.5 60.2 427.3 59.4 425.6 59.4C423.3 59.4 421.6 61.1 421.6 63.2C421.6 63.8 421.7 64.3 421.9 64.8L429.2 81.1L428.7 82.2C428.2 83.4 427.5 84 426.6 84C424.7 84 423.5 84.3 422.9 86C422.8 86.3 422.7 86.7 422.7 87.1C422.7 88.4 423.3 89.3 424.4 89.9C425.4 90.3 426.3 90.6 427.3 90.6C429.1 90.6 430.5 89.9 431.8 88.6C433.1 87.3 434.4 84.7 435.9 81.1L442.4 64.5C442.6 64 442.7 63.5 442.7 63C442.6 61.1 441.1 59.5 438.8 59.5Z" fill="#353535"/>
<path d="M460.4 69.9L463.7 65C464.2 64.3 464.4 63.6 464.4 62.8C464.4 60.9 463 59.4 460.7 59.4C459.2 59.4 458 60.2 457.1 61.8L452.5 69.6V62.8C452.5 60.9 451 59.5 448.9 59.5C446.9 59.5 445.3 61 445.3 62.8V78.3C445.3 80.2 446.8 81.6 448.9 81.6C450.9 81.6 452.5 80.1 452.5 78.3V71.2L457.9 79.4C458.9 80.9 460.2 81.7 461.7 81.7C463.8 81.7 465.3 80 465.3 78.1C465.3 77.3 465.1 76.5 464.5 75.8L460.4 69.9Z" fill="#353535"/>
<path d="M487.4 59.5C485.2 59.5 483.8 60.3 482.4 62.4L476.6 70.9V62.8C476.6 60.9 475.1 59.5 473 59.5C471 59.5 469.4 61 469.4 62.8V77.8C469.4 80.1 470.9 81.6 473.3 81.6C475.3 81.6 476.8 80.7 478 78.9L484.1 69.9V78.2C484.1 80.1 485.6 81.5 487.7 81.5C489.7 81.5 491.3 80 491.3 78.2V63.1C491.4 61.2 489.7 59.5 487.4 59.5Z" fill="#353535"/>
<path d="M518.1 66.9L512.4 60.4C511.8 59.7 511 59.3 510.1 59.3C509.4 59.3 508.7 59.5 508.1 60.1C507.4 60.7 507.1 61.5 507.1 62.5C507.1 63.3 507.3 64 507.9 64.6L512 69.4L507.9 74.3C507.4 74.9 507.2 75.5 507.2 76.3C507.2 77.3 507.6 78.1 508.3 78.7C508.9 79.2 509.6 79.5 510.4 79.5C511.3 79.5 512.1 79.1 512.7 78.4L518.2 72C518.8 71.3 519.1 70.5 519.1 69.6C519 68.4 518.7 67.6 518.1 66.9Z" fill="#353535"/>
<path d="M506.7 66.9L501 60.4C500.4 59.7 499.6 59.3 498.7 59.3C498 59.3 497.3 59.5 496.7 60.1C496 60.7 495.7 61.5 495.7 62.5C495.7 63.3 495.9 64 496.5 64.6L500.6 69.4L496.5 74.3C496 74.9 495.8 75.5 495.8 76.3C495.8 77.3 496.2 78.1 496.9 78.7C497.5 79.2 498.2 79.5 499 79.5C499.9 79.5 500.7 79.1 501.3 78.4L506.8 72C507.4 71.3 507.7 70.5 507.7 69.6C507.6 68.4 507.3 67.6 506.7 66.9Z" fill="#353535"/>
<path d="M242.672 41H238.516L243.914 25H249.063L254.461 41H250.305L246.547 29.0312H246.422L242.672 41ZM242.117 34.7031H250.805V37.6406H242.117V34.7031ZM255.488 44.8516V37.9844H256.59C256.96 37.7344 257.298 37.3854 257.605 36.9375C257.913 36.4844 258.176 35.849 258.395 35.0313C258.613 34.2083 258.77 33.1224 258.863 31.7734L259.363 25H270.309V37.9844H272.027V44.8438H268.309V41H259.207V44.8516H255.488ZM261.027 37.9844H266.59V28.1406H262.832L262.582 31.7734C262.514 32.7891 262.405 33.6849 262.254 34.4609C262.103 35.237 261.923 35.9141 261.715 36.4922C261.507 37.0651 261.277 37.5625 261.027 37.9844ZM273.801 25H278.59L282.652 34.9062H282.84L286.902 25H291.691V41H287.926V31.1719H287.793L283.949 40.8984H281.543L277.699 31.1172H277.566V41H273.801V25ZM294.104 25H297.963V34.2187H298.096L304.393 25H307.721V41H303.854V31.7656H303.752L297.377 41H294.104V25ZM310.152 41V25H314.02V31.4219H320.324V25H324.184V41H320.324V34.5703H314.02V41H310.152ZM326.609 25H330.469V34.2187H330.602L336.898 25H340.227V41H336.359V31.7656H336.258L329.883 41H326.609V25ZM357.182 30.7969H353.275C353.223 30.3958 353.117 30.0339 352.955 29.7109C352.794 29.388 352.58 29.112 352.314 28.8828C352.049 28.6536 351.734 28.4792 351.369 28.3594C351.01 28.2344 350.611 28.1719 350.174 28.1719C349.398 28.1719 348.729 28.362 348.166 28.7422C347.609 29.1224 347.179 29.6719 346.877 30.3906C346.58 31.1094 346.432 31.9792 346.432 33C346.432 34.0625 346.583 34.9531 346.885 35.6719C347.192 36.3854 347.622 36.9245 348.174 37.2891C348.731 37.6484 349.39 37.8281 350.15 37.8281C350.577 37.8281 350.965 37.7734 351.314 37.6641C351.669 37.5547 351.979 37.3958 352.244 37.1875C352.515 36.974 352.736 36.7161 352.908 36.4141C353.085 36.1068 353.208 35.7604 353.275 35.375L357.182 35.3984C357.114 36.1068 356.908 36.8047 356.564 37.4922C356.226 38.1797 355.76 38.8073 355.166 39.375C354.572 39.9375 353.848 40.3854 352.994 40.7187C352.145 41.0521 351.171 41.2187 350.072 41.2187C348.624 41.2187 347.327 40.901 346.182 40.2656C345.041 39.625 344.14 38.6927 343.479 37.4687C342.817 36.2448 342.486 34.7552 342.486 33C342.486 31.2396 342.822 29.7474 343.494 28.5234C344.166 27.2995 345.075 26.3698 346.221 25.7344C347.367 25.099 348.65 24.7812 350.072 24.7812C351.041 24.7812 351.937 24.9167 352.76 25.1875C353.583 25.4531 354.307 25.8437 354.932 26.3594C355.557 26.8698 356.064 27.4974 356.455 28.2422C356.846 28.987 357.088 29.8385 357.182 30.7969ZM358.871 28.1406V25H372.395V28.1406H367.543V41H363.73V28.1406H358.871ZM374.283 41V25H380.893C382.09 25 383.124 25.2344 383.994 25.7031C384.869 26.1667 385.544 26.8151 386.018 27.6484C386.492 28.4766 386.729 29.4401 386.729 30.5391C386.729 31.6432 386.486 32.6094 386.002 33.4375C385.523 34.2604 384.838 34.8984 383.947 35.3516C383.057 35.8047 381.999 36.0312 380.775 36.0312H376.697V32.9844H380.057C380.64 32.9844 381.127 32.8828 381.518 32.6797C381.913 32.4766 382.213 32.1927 382.416 31.8281C382.619 31.4583 382.721 31.0286 382.721 30.5391C382.721 30.0443 382.619 29.6172 382.416 29.2578C382.213 28.8932 381.913 28.612 381.518 28.4141C381.122 28.2161 380.635 28.1172 380.057 28.1172H378.15V41H374.283ZM388.635 25H392.494V34.2187H392.627L398.924 25H402.252V41H398.385V31.7656H398.283L391.908 41H388.635V25ZM404.684 41V25H411.293C412.491 25 413.525 25.2344 414.395 25.7031C415.27 26.1667 415.944 26.8151 416.418 27.6484C416.892 28.4766 417.129 29.4401 417.129 30.5391C417.129 31.6432 416.887 32.6094 416.402 33.4375C415.923 34.2604 415.238 34.8984 414.348 35.3516C413.457 35.8047 412.4 36.0312 411.176 36.0312H407.098V32.9844H410.457C411.04 32.9844 411.527 32.8828 411.918 32.6797C412.314 32.4766 412.613 32.1927 412.816 31.8281C413.02 31.4583 413.121 31.0286 413.121 30.5391C413.121 30.0443 413.02 29.6172 412.816 29.2578C412.613 28.8932 412.314 28.612 411.918 28.4141C411.522 28.2161 411.035 28.1172 410.457 28.1172H408.551V41H404.684ZM434.137 33C434.137 34.7604 433.798 36.2526 433.121 37.4766C432.444 38.7005 431.527 39.6302 430.371 40.2656C429.22 40.901 427.928 41.2187 426.496 41.2187C425.059 41.2187 423.764 40.8984 422.613 40.2578C421.462 39.6172 420.548 38.6875 419.871 37.4687C419.199 36.2448 418.863 34.7552 418.863 33C418.863 31.2396 419.199 29.7474 419.871 28.5234C420.548 27.2995 421.462 26.3698 422.613 25.7344C423.764 25.099 425.059 24.7812 426.496 24.7812C427.928 24.7812 429.22 25.099 430.371 25.7344C431.527 26.3698 432.444 27.2995 433.121 28.5234C433.798 29.7474 434.137 31.2396 434.137 33ZM430.184 33C430.184 31.9583 430.035 31.0781 429.738 30.3594C429.447 29.6406 429.025 29.0964 428.473 28.7266C427.926 28.3568 427.267 28.1719 426.496 28.1719C425.73 28.1719 425.072 28.3568 424.52 28.7266C423.967 29.0964 423.543 29.6406 423.246 30.3594C422.954 31.0781 422.809 31.9583 422.809 33C422.809 34.0417 422.954 34.9219 423.246 35.6406C423.543 36.3594 423.967 36.9036 424.52 37.2734C425.072 37.6432 425.73 37.8281 426.496 37.8281C427.267 37.8281 427.926 37.6432 428.473 37.2734C429.025 36.9036 429.447 36.3594 429.738 35.6406C430.035 34.9219 430.184 34.0417 430.184 33ZM436.395 41V25H443.066C444.264 25 445.267 25.1693 446.074 25.5078C446.887 25.8464 447.496 26.3203 447.902 26.9297C448.314 27.5391 448.52 28.2448 448.52 29.0469C448.52 29.6562 448.392 30.2005 448.137 30.6797C447.882 31.1536 447.53 31.5469 447.082 31.8594C446.634 32.1719 446.116 32.3906 445.527 32.5156V32.6719C446.173 32.7031 446.77 32.8776 447.316 33.1953C447.868 33.513 448.311 33.9557 448.645 34.5234C448.978 35.0859 449.145 35.7526 449.145 36.5234C449.145 37.3828 448.926 38.151 448.488 38.8281C448.051 39.5 447.418 40.0312 446.59 40.4219C445.762 40.8073 444.757 41 443.574 41H436.395ZM440.262 37.8828H442.652C443.491 37.8828 444.108 37.724 444.504 37.4062C444.905 37.0885 445.105 36.6458 445.105 36.0781C445.105 35.6667 445.009 35.3125 444.816 35.0156C444.624 34.7135 444.35 34.4818 443.996 34.3203C443.642 34.1536 443.217 34.0703 442.723 34.0703H440.262V37.8828ZM440.262 31.5781H442.402C442.824 31.5781 443.199 31.5078 443.527 31.3672C443.855 31.2266 444.111 31.0234 444.293 30.7578C444.48 30.4922 444.574 30.1719 444.574 29.7969C444.574 29.2604 444.384 28.8385 444.004 28.5312C443.624 28.224 443.111 28.0703 442.465 28.0703H440.262V31.5781ZM454.465 41H450.309L455.707 25H460.855L466.254 41H462.098L458.34 29.0312H458.215L454.465 41ZM453.91 34.7031H462.598V37.6406H453.91V34.7031ZM467.977 41V25H471.844V31.4219H478.148V25H482.008V41H478.148V34.5703H471.844V41H467.977ZM484.434 25H488.293V34.2187H488.426L494.723 25H498.051V41H494.184V31.7656H494.082L487.707 41H484.434V25ZM500.482 41V25H511.639V28.1406H504.35V31.4219H511.068V34.5703H504.35V37.8594H511.639V41H500.482Z" fill="#FF4545"/>
</svg>
