<svg viewBox="0 0 200 86" fill="none" xmlns="http://www.w3.org/2000/svg">
<path d="M197.674 1.6302C195.874 0.730198 193.674 1.5302 192.874 3.3302C192.574 4.0302 191.874 5.1302 191.074 5.3302C190.474 5.5302 189.574 5.2302 188.774 4.6302C186.274 2.8302 182.174 1.8302 178.774 3.4302C176.174 4.7302 174.574 7.2302 174.374 10.5302L174.174 15.9302C174.074 15.7302 173.874 15.5302 173.774 15.3302C170.774 11.1302 167.974 7.1302 163.774 7.6302C160.074 8.0302 158.274 11.6302 157.174 14.3302C156.474 16.1302 157.274 18.3302 159.174 19.0302C160.974 19.7302 163.174 18.9302 163.874 17.0302C164.174 16.2302 164.474 15.6302 164.674 15.2302C165.574 16.2302 166.974 18.0302 167.874 19.4302C168.174 19.8302 168.374 20.1302 168.674 20.5302C170.674 23.2302 173.574 24.3302 176.274 23.6302C176.374 23.6302 176.374 23.6302 176.474 23.5302C179.274 22.6302 181.174 19.9302 181.374 16.5302L181.574 10.7302C181.574 10.5302 181.674 9.9302 181.874 9.8302C182.374 9.5302 183.674 9.7302 184.574 10.3302C187.174 12.1302 190.174 12.8302 192.874 12.1302C194.774 11.6302 197.574 10.2302 199.474 6.2302C200.274 4.6302 199.474 2.5302 197.674 1.6302Z" fill="#FFA1A1"/>
<path d="M20.5737 34.3302C19.6737 33.0302 17.9737 32.5302 16.3737 33.0302C14.8737 33.5302 13.7737 34.9302 13.8737 36.5302L14.0737 54.4302H13.7737C11.8737 55.0302 10.7737 57.1302 11.3737 59.1302C11.8737 60.7302 13.4737 61.8302 15.1737 61.6302C15.4737 61.6302 15.7737 61.5302 16.0737 61.4302L18.8737 60.5302C20.3737 60.0302 21.4737 58.6302 21.4737 56.9302L21.3737 47.8302L26.7737 55.2302C27.9737 56.9302 30.2737 57.2302 31.9737 56.0302C33.6737 54.8302 33.9737 52.5302 32.7737 50.8302L20.5737 34.3302Z" fill="#FFA1A1"/>
<path d="M59.6737 39.9301C57.6737 39.6301 55.7737 41.0301 55.4737 43.0301L54.9737 45.9301L52.6737 43.8301C51.6737 42.9301 50.2737 42.6301 49.0737 43.0301L46.5737 43.8301C44.6737 44.4301 43.5737 46.5301 44.1737 48.5301C44.7737 50.4301 46.8737 51.5301 48.8737 50.9301L49.2737 50.8301L55.1737 56.1301C55.9737 56.8301 56.8737 57.1301 57.8737 57.1301C58.1737 57.1301 58.5737 57.0301 58.8737 56.9301C60.1737 56.4301 61.0737 55.3301 61.2737 54.0301L62.7737 44.3301C63.0737 42.1301 61.6737 40.2301 59.6737 39.9301Z" fill="#FFA1A1"/>
<path d="M5.3737 57.2302L3.4737 57.8302C1.5737 58.4302 0.473698 60.5302 1.0737 62.5302C1.5737 64.1302 3.1737 65.2302 4.8737 65.0302C5.1737 65.0302 5.4737 64.9302 5.7737 64.8302L7.6737 64.2302C9.5737 63.6302 10.6737 61.5302 10.0737 59.5302C9.3737 57.6302 7.3737 56.6302 5.3737 57.2302Z" fill="#FFA1A1"/>
<path d="M37.8737 46.6302L37.1737 46.8302C35.2737 47.4302 34.1736 49.5302 34.7736 51.5302C35.2736 53.1302 36.8736 54.2302 38.5736 54.0302C38.8736 54.0302 39.1737 53.9302 39.4737 53.8302L40.1737 53.6302C42.0737 53.0302 43.1736 50.9302 42.5736 48.9302C41.8736 47.0302 39.8737 46.0302 37.8737 46.6302Z" fill="#FFA1A1"/>
<path d="M162.474 30.3302C157.274 20.1302 149.274 10.4302 142.174 5.6302C138.174 2.8302 133.774 1.3302 129.274 1.3302C123.574 1.3302 118.074 3.7302 113.774 8.2302C110.974 11.1302 107.374 12.6302 103.474 12.6302C101.974 12.6302 100.574 12.4302 99.1737 11.9302L98.2737 11.6302C95.8737 10.9302 93.4737 10.5302 91.1737 10.5302C85.7737 10.5302 81.0737 12.4302 77.5737 16.1302C72.2737 21.4302 69.5737 29.4302 68.0737 35.1302C66.1737 42.8302 65.4737 51.3302 66.1737 59.0302C66.6737 64.2302 67.6737 68.7302 69.3737 72.6302C71.1737 77.0302 73.7737 80.3302 76.8737 82.6302C79.3737 84.3302 81.9737 85.1302 84.8737 85.1302C93.0737 85.1302 100.974 78.3302 109.374 71.0302L110.174 70.3302C113.474 67.5302 121.974 64.9302 127.974 64.9302C129.174 64.9302 130.074 65.0302 130.874 65.2302L131.874 65.4302C138.674 67.0302 145.074 68.5302 150.774 68.5302C158.174 68.5302 163.174 65.9302 165.974 60.6302C171.374 50.9302 166.074 37.4302 162.474 30.3302Z" fill="#55CFF5"/>
<path d="M159.674 55.9302C154.474 65.5302 141.574 62.3302 127.974 59.1302C122.074 57.7302 109.974 60.7302 105.374 64.7302C94.7737 73.8302 84.8737 82.6302 75.8737 76.5302C74.6737 75.7302 73.6737 74.6302 72.6737 73.5302C72.9737 73.8302 73.3737 74.0302 73.6737 74.3302C82.7737 80.4302 92.6737 71.5302 103.174 62.5302C107.774 58.5302 119.874 55.6302 125.774 56.9302C139.374 60.0302 152.274 63.3302 157.474 53.7302C163.674 42.3302 153.474 21.8302 142.474 9.93018C154.274 21.3302 166.274 43.7302 159.674 55.9302Z" fill="#9CF1FF"/>
<path d="M157.474 53.7302C152.274 63.3302 139.374 60.1302 125.774 56.9302C119.874 55.5302 107.774 58.5302 103.174 62.5302C92.6737 71.5302 82.7737 80.4302 73.6737 74.3302C73.3737 74.1302 72.9737 73.8302 72.6737 73.5302C61.9737 60.2302 65.4737 26.9302 76.6737 15.3302C81.3737 10.5302 87.9737 9.63021 94.4737 11.5302L95.3737 11.8302C101.474 13.7302 107.974 12.0302 112.374 7.43021C119.274 0.330206 128.874 -0.569795 136.974 5.23021C138.774 6.43021 140.574 7.93021 142.474 9.83021C153.574 21.8302 163.674 42.2302 157.474 53.7302Z" fill="#1468BA"/>
<path d="M116.574 47.2302C115.974 48.4302 114.874 49.2302 113.574 49.5302C112.274 49.8302 110.974 49.6302 109.874 48.8302C108.874 48.1302 107.474 48.4302 106.874 49.4302C106.174 50.4302 106.474 51.8302 107.474 52.4302C109.574 53.8302 112.174 54.3302 114.674 53.7302C117.174 53.1302 119.274 51.5302 120.474 49.2302C121.074 48.1302 120.674 46.8302 119.574 46.2302C118.474 45.7302 117.174 46.1302 116.574 47.2302Z" fill="#FF4E00"/>
<path d="M96.2736 30.4302L92.4736 31.4302L91.5736 27.5302C90.9736 25.1302 88.4736 23.6302 86.0736 24.2302C83.6736 24.8302 82.1736 27.3302 82.7736 29.7302L83.6736 33.6302L79.7736 34.5302C77.3736 35.1302 75.8736 37.6302 76.4736 40.0302C77.0736 42.4302 79.5736 43.9302 81.9736 43.3302L85.8736 42.4302L86.7736 46.3302C87.3736 48.7302 89.8736 50.2302 92.2736 49.6302C94.6736 49.0302 96.1736 46.5302 95.5736 44.1302L94.6736 40.2302L98.5736 39.3302C100.974 38.7302 102.474 36.2302 101.874 33.8302C101.174 31.3302 98.7736 29.8302 96.2736 30.4302Z" fill="#014472"/>
<path d="M128.27 23.7115C130.737 23.1044 132.245 20.6124 131.637 18.1455C131.03 15.6787 128.538 14.1712 126.071 14.7783C123.604 15.3855 122.097 17.8775 122.704 20.3443C123.311 22.8112 125.803 24.3187 128.27 23.7115Z" fill="#FF4E00"/>
<path d="M132.169 39.2969C134.636 38.6897 136.143 36.1977 135.536 33.7309C134.929 31.264 132.437 29.7565 129.97 30.3637C127.503 30.9709 125.996 33.4628 126.603 35.9297C127.21 38.3965 129.702 39.9041 132.169 39.2969Z" fill="#236323"/>
<path d="M139.069 29.2068C141.33 28.0491 142.225 25.2775 141.067 23.0162C139.91 20.7548 137.138 19.8602 134.877 21.0179C132.615 22.1756 131.721 24.9473 132.878 27.2086C134.036 29.4699 136.808 30.3645 139.069 29.2068Z" fill="#663C68"/>
<path d="M123.452 33.0132C125.713 31.8555 126.608 29.0839 125.45 26.8226C124.293 24.5612 121.521 23.6666 119.26 24.8243C116.998 25.982 116.104 28.7537 117.261 31.015C118.419 33.2763 121.191 34.1709 123.452 33.0132Z" fill="#CC1F1F"/>
<path d="M115.074 45.4302C114.474 46.6302 113.374 47.4302 112.074 47.7302C110.774 48.0302 109.374 47.8302 108.274 47.0302C107.274 46.3302 105.874 46.6302 105.174 47.6302C104.474 48.6302 104.774 50.0302 105.774 50.7302C107.874 52.1302 110.574 52.6302 113.074 52.0302C115.574 51.4302 117.674 49.7302 118.974 47.5302C119.574 46.4302 119.174 45.1302 118.074 44.5302C116.974 43.9302 115.674 44.3302 115.074 45.4302Z" fill="#FFD00D"/>
<path d="M94.5737 28.4302L90.6737 29.4302L89.6737 25.5302C89.0737 23.0302 86.5737 21.5302 84.0737 22.1302C81.5737 22.7302 80.0737 25.2302 80.6737 27.7302L81.6737 31.6302L77.7737 32.6302C75.2737 33.2302 73.7737 35.7302 74.3737 38.2302C74.9737 40.7302 77.4737 42.2302 79.9737 41.6302L83.8737 40.6302L84.8737 44.5302C85.4737 47.0302 87.9737 48.5302 90.4737 47.9302C92.9737 47.3302 94.4737 44.8302 93.8737 42.3302L92.8737 38.4302L96.7737 37.4302C99.2737 36.8302 100.774 34.3302 100.174 31.8302C99.4737 29.3302 96.9737 27.8302 94.5737 28.4302Z" fill="#55CFF5"/>
<path d="M126.885 21.6107C129.406 20.9903 130.946 18.4441 130.326 15.9237C129.705 13.4032 127.159 11.8629 124.639 12.4833C122.118 13.1036 120.578 15.6498 121.198 18.1703C121.819 20.6907 124.365 22.231 126.885 21.6107Z" fill="#FFD00D"/>
<path d="M130.788 37.407C133.308 36.7866 134.848 34.2405 134.228 31.72C133.608 29.1995 131.062 27.6592 128.541 28.2796C126.021 28.9 124.48 31.4461 125.101 33.9666C125.721 36.4871 128.267 38.0274 130.788 37.407Z" fill="#38CE46"/>
<path d="M137.813 27.2073C140.124 26.0244 141.038 23.1925 139.855 20.8821C138.672 18.5716 135.84 17.6575 133.53 18.8404C131.219 20.0233 130.305 22.8552 131.488 25.1656C132.671 27.4761 135.503 28.3902 137.813 27.2073Z" fill="#EA6CE7"/>
<path d="M122.021 31.1119C124.332 29.929 125.246 27.0971 124.063 24.7866C122.88 22.4761 120.048 21.562 117.738 22.7449C115.427 23.9278 114.513 26.7597 115.696 29.0702C116.879 31.3807 119.711 32.2947 122.021 31.1119Z" fill="#FF4545"/>
<path d="M195.174 0.330176C193.474 -0.469824 191.474 0.230177 190.674 1.93018C190.374 2.53018 189.774 3.63018 188.974 3.83018C188.374 3.93018 187.574 3.73018 186.874 3.23018C184.574 1.53018 180.674 0.530177 177.474 2.13018C175.074 3.33018 173.574 5.73018 173.374 8.73018L173.174 13.7302C173.074 13.5302 172.974 13.3302 172.774 13.2302C169.974 9.33018 167.374 5.63018 163.374 6.03018C159.974 6.43018 158.174 9.83018 157.174 12.3302C156.474 14.0302 157.274 16.0302 159.074 16.7302C160.774 17.4302 162.774 16.6302 163.474 14.8302C163.774 14.0302 164.074 13.5302 164.274 13.2302C165.174 14.1302 166.374 15.9302 167.274 17.1302C167.474 17.4302 167.774 17.8302 167.974 18.1302C169.774 20.6302 172.574 21.7302 175.074 21.0302C175.174 21.0302 175.174 21.0302 175.274 21.0302C177.974 20.2302 179.674 17.7302 179.874 14.4302L180.074 9.03018C180.074 8.83018 180.174 8.23018 180.374 8.13018C180.874 7.93018 182.074 8.03018 182.874 8.63018C185.274 10.3302 188.074 10.9302 190.574 10.3302C192.374 9.83018 194.974 8.53018 196.674 4.73018C197.574 3.23018 196.874 1.13018 195.174 0.330176Z" fill="#FF4545"/>
<path d="M19.0737 33.1302C18.1737 31.8302 16.5737 31.3302 15.0737 31.8302C13.5737 32.3302 12.5737 33.7302 12.5737 35.2302L12.6737 52.5301L12.4737 52.6301C10.5737 53.2301 9.57367 55.2301 10.1737 57.1301C10.6737 58.7301 12.1737 59.7301 13.7737 59.6301C14.0737 59.6301 14.3737 59.5302 14.6737 59.4302L17.3737 58.5301C18.8737 58.0301 19.8737 56.6301 19.8737 55.1301L19.7737 46.3302L24.9737 53.4302C26.1737 55.0302 28.3737 55.4302 29.9737 54.2302C31.5737 53.0302 31.9737 50.8302 30.7737 49.2302L19.0737 33.1302Z" fill="#FF4545"/>
<path d="M56.7736 38.5301C54.7736 38.2301 52.9737 39.6301 52.6737 41.5301L52.2736 44.2301L49.9736 42.3301C48.9736 41.4301 47.6737 41.2301 46.4737 41.5301L44.0736 42.3301C42.1736 42.9301 41.1736 44.9301 41.7736 46.8301C42.3736 48.7301 44.3736 49.7301 46.2736 49.1301L46.6737 49.0301L52.3737 54.1301C53.0737 54.8301 54.0737 55.1301 54.9736 55.0301C55.2737 55.0301 55.6736 54.9301 55.9736 54.8301C57.1736 54.4301 58.0737 53.3301 58.2737 52.0301L59.6736 42.6301C60.0736 40.7301 58.7736 38.8301 56.7736 38.5301Z" fill="#FF4545"/>
<path d="M4.37367 55.3302L2.47367 55.9302C0.573674 56.5302 -0.426326 58.5302 0.173674 60.4302C0.673674 62.0302 2.17367 63.0302 3.77367 62.9302C4.07367 62.9302 4.37367 62.8302 4.67367 62.7302L6.57367 62.1302C8.47367 61.5302 9.47367 59.5302 8.87367 57.6302C8.27367 55.7302 6.17367 54.6302 4.37367 55.3302Z" fill="#FF4545"/>
<path d="M35.7736 45.0302L35.0736 45.2302C33.1736 45.8302 32.1736 47.8302 32.7736 49.7302C33.2736 51.3302 34.7737 52.3302 36.3737 52.2302C36.6737 52.2302 36.9736 52.1302 37.2736 52.0302L37.9737 51.8302C39.8737 51.2302 40.8736 49.2302 40.2736 47.3302C39.6736 45.4302 37.6736 44.4302 35.7736 45.0302Z" fill="#FF4545"/>
</svg>
